M48
; DRILL file {KiCad 9.0.3} date 2025-08-26T21:56:11+0800
; FORMAT={-:-/ absolute / inch / decimal}
; #@! TF.CreationDate,2025-08-26T21:56:11+08:00
; #@! TF.GenerationSoftware,Kicad,Pcbnew,9.0.3
; #@! TF.FileFunction,Plated,1,2,PTH
FMAT,2
INCH
; #@! TA.AperFunction,Plated,PTH,ViaDrill
T1C0.0118
; #@! TA.AperFunction,Plated,PTH,ComponentDrill
T2C0.0236
; #@! TA.AperFunction,Plated,PTH,ComponentDrill
T3C0.0276
; #@! TA.AperFunction,Plated,PTH,ComponentDrill
T4C0.0433
; #@! TA.AperFunction,Plated,PTH,ComponentDrill
T5C0.0433
%
G90
G05
T1
X5.0591Y-4.5276
X5.1772Y-4.5669
X5.1772Y-4.6161
X5.2264Y-4.5669
X5.2264Y-4.6161
X5.2756Y-3.7697
X5.2756Y-3.7992
X5.2756Y-3.8287
X5.2953Y-4.5276
X5.374Y-4.124
X5.374Y-4.6063
X5.374Y-4.6358
X5.3841Y-4.2124
X5.3937Y-3.6614
X5.4035Y-4.6063
X5.4134Y-4.3898
X5.4232Y-3.6614
X5.4493Y-4.3906
X5.4921Y-3.9567
X5.5217Y-3.9567
X5.5709Y-3.9764
X5.5787Y-4.315
X5.6102Y-3.937
X5.6102Y-4.1535
X5.622Y-4.2795
X5.626Y-4.0591
X5.6378Y-4.3504
X5.6594Y-4.4587
X5.689Y-4.3976
X5.6929Y-3.9173
X5.7382Y-4.1831
X5.7402Y-3.8031
X5.748Y-4.0551
X5.7579Y-4.5571
X5.8071Y-3.9094
X5.8169Y-3.7264
X5.8169Y-4.1043
X5.8169Y-4.1339
X5.8169Y-4.1634
X5.8465Y-4.1043
X5.8465Y-4.1339
X5.8465Y-4.1634
X5.876Y-3.6614
X5.876Y-4.1043
X5.876Y-4.1339
X5.876Y-4.1634
X5.9055Y-3.6614
X5.935Y-4.2323
X5.9488Y-4.3937
X5.9685Y-3.7008
X6.0335Y-4.3012
X6.063Y-3.7992
X6.063Y-3.8484
X6.0925Y-4.1634
X6.1024Y-3.9606
X6.122Y-4.0453
X6.1516Y-4.0453
X6.1929Y-3.8819
X6.1929Y-3.9606
X6.2402Y-4.0551
X6.2402Y-4.1634
X6.2795Y-4.4685
X6.2835Y-3.8819
X6.2835Y-4.2087
X6.3031Y-4.2835
X6.3031Y-4.3228
X6.3091Y-3.9862
X6.3189Y-4.4685
X6.3346Y-4.0197
X6.3386Y-3.9567
X6.3465Y-4.3228
X6.378Y-4.3602
X6.378Y-4.3996
X6.4075Y-3.8976
X6.4173Y-4.3602
X6.4173Y-4.3996
X6.5748Y-4.0748
X6.5748Y-4.1142
X6.5748Y-4.1535
T3
X5.2362Y-4.1831
X6.0039Y-4.498
X6.0039Y-4.626
X6.4252Y-4.0004
X6.4252Y-4.228
X6.5748Y-3.7795
T4
X5.041Y-3.7638
X5.041Y-4.0315
T5
X5.4602Y-3.5827
X5.4602Y-4.685
X5.5602Y-3.5827
X5.5602Y-4.685
X5.6602Y-3.5827
X5.6602Y-4.685
X5.7602Y-3.5827
X5.7602Y-4.685
X5.9327Y-3.5827
X6.0327Y-3.5827
X6.1327Y-3.5827
X6.2327Y-3.5827
T2
G00X6.3866Y-3.9441
M15
G01X6.422Y-3.9441
M16
G05
G00X6.3866Y-4.2843
M15
G01X6.422Y-4.2843
M16
G05
G00X6.5583Y-3.9441
M15
G01X6.5819Y-3.9441
M16
G05
G00X6.5583Y-4.2843
M15
G01X6.5819Y-4.2843
M16
G05
M30
