%TF.GenerationSoftware,KiCad,Pcbnew,9.0.3*%
%TF.CreationDate,2025-08-26T21:56:11+08:00*%
%TF.ProjectId,firstm32,66697273-746d-4333-922e-6b696361645f,rev?*%
%TF.SameCoordinates,Original*%
%TF.FileFunction,Copper,L2,Bot*%
%TF.FilePolarity,Positive*%
%FSLAX46Y46*%
G04 Gerber Fmt 4.6, Leading zero omitted, Abs format (unit mm)*
G04 Created by KiCad (PCBNEW 9.0.3) date 2025-08-26 21:56:11*
%MOMM*%
%LPD*%
G01*
G04 APERTURE LIST*
%TA.AperFunction,ComponentPad*%
%ADD10C,0.700000*%
%TD*%
%TA.AperFunction,ComponentPad*%
%ADD11O,2.000000X1.100000*%
%TD*%
%TA.AperFunction,ComponentPad*%
%ADD12O,1.800000X1.200000*%
%TD*%
%TA.AperFunction,ComponentPad*%
%ADD13C,1.500000*%
%TD*%
%TA.AperFunction,ComponentPad*%
%ADD14R,1.700000X1.700000*%
%TD*%
%TA.AperFunction,ComponentPad*%
%ADD15C,1.700000*%
%TD*%
%TA.AperFunction,ComponentPad*%
%ADD16C,1.100000*%
%TD*%
%TA.AperFunction,ViaPad*%
%ADD17C,0.600000*%
%TD*%
%TA.AperFunction,Conductor*%
%ADD18C,0.300000*%
%TD*%
%TA.AperFunction,Conductor*%
%ADD19C,0.500000*%
%TD*%
G04 APERTURE END LIST*
D10*
%TO.P,J1,*%
%TO.N,*%
X163200000Y-107390000D03*
X163200000Y-101610000D03*
D11*
%TO.P,J1,S1,SHIELD*%
%TO.N,GND*%
X162670000Y-108820000D03*
D12*
X166880000Y-108820000D03*
D11*
X162670000Y-100180000D03*
D12*
X166880000Y-100180000D03*
%TD*%
D13*
%TO.P,TP4,1,1*%
%TO.N,GND*%
X167000000Y-96000000D03*
%TD*%
D14*
%TO.P,J2,1,Pin_1*%
%TO.N,GND*%
X150690000Y-91000000D03*
D15*
%TO.P,J2,2,Pin_2*%
%TO.N,/SWCLK*%
X153230000Y-91000000D03*
%TO.P,J2,3,Pin_3*%
%TO.N,/SWDIO*%
X155770000Y-91000000D03*
%TO.P,J2,4,Pin_4*%
%TO.N,+3V3*%
X158310000Y-91000000D03*
%TD*%
D14*
%TO.P,J4,1,Pin_1*%
%TO.N,GND*%
X138690000Y-119000000D03*
D15*
%TO.P,J4,2,Pin_2*%
%TO.N,/I2C2_SCL*%
X141230000Y-119000000D03*
%TO.P,J4,3,Pin_3*%
%TO.N,/I2C2_SDA*%
X143770000Y-119000000D03*
%TO.P,J4,4,Pin_4*%
%TO.N,+3V3*%
X146310000Y-119000000D03*
%TD*%
D13*
%TO.P,TP2,1,1*%
%TO.N,+3V3*%
X152500000Y-117500000D03*
%TD*%
D16*
%TO.P,SW1,*%
%TO.N,*%
X128042500Y-102400000D03*
X128042500Y-95600000D03*
%TD*%
D13*
%TO.P,TP1,1,1*%
%TO.N,DEBUG*%
X133000000Y-106250000D03*
%TD*%
%TO.P,TP3,1,1*%
%TO.N,VBUS*%
X152500000Y-114250000D03*
%TD*%
D14*
%TO.P,J3,1,Pin_1*%
%TO.N,GND*%
X138690000Y-91000000D03*
D15*
%TO.P,J3,2,Pin_2*%
%TO.N,/USART_RX*%
X141230000Y-91000000D03*
%TO.P,J3,3,Pin_3*%
%TO.N,/USART_TX*%
X143770000Y-91000000D03*
%TO.P,J3,4,Pin_4*%
%TO.N,+3V3*%
X146310000Y-91000000D03*
%TD*%
D17*
%TO.N,GND*%
X150750000Y-107500000D03*
X145750000Y-106250000D03*
X159600000Y-98600000D03*
X157300000Y-98600000D03*
X157300000Y-100600000D03*
X155000000Y-100600000D03*
X141700000Y-109600000D03*
X141500000Y-101000000D03*
X154750000Y-105750000D03*
X156250000Y-102750000D03*
X155500000Y-102750000D03*
X162750000Y-99000000D03*
X161000000Y-100500000D03*
X160250000Y-101250000D03*
X158500000Y-103000000D03*
X158500000Y-105750000D03*
X153250000Y-109250000D03*
X149250000Y-105750000D03*
X147750000Y-105750000D03*
X148500000Y-105750000D03*
X147750000Y-105000000D03*
X147750000Y-104250000D03*
X149250000Y-104250000D03*
X148500000Y-104250000D03*
X149250000Y-105000000D03*
X148500000Y-105000000D03*
X142500000Y-100000000D03*
X142500000Y-105500000D03*
X136755331Y-106994669D03*
X136500000Y-104750000D03*
X140250000Y-100500000D03*
X139500000Y-100500000D03*
X154000000Y-97750000D03*
X154000000Y-96500000D03*
X149250000Y-93000000D03*
X150000000Y-93000000D03*
X134000000Y-95750000D03*
X134000000Y-97250000D03*
X134000000Y-96500000D03*
X137750000Y-93000000D03*
X137000000Y-93000000D03*
X137250000Y-117000000D03*
X136500000Y-117750000D03*
X136500000Y-117000000D03*
X132750000Y-117250000D03*
X131500000Y-117250000D03*
X132750000Y-116000000D03*
X131500000Y-116000000D03*
X128500000Y-115000000D03*
X134500000Y-115000000D03*
X138411489Y-111521576D03*
X137500000Y-111500000D03*
X143200000Y-110500000D03*
X142800000Y-108700000D03*
X144500000Y-111700000D03*
X167000000Y-103500000D03*
X167000000Y-105500000D03*
X167000000Y-104500000D03*
X160500000Y-113500000D03*
X159500000Y-113500000D03*
X162000000Y-110750000D03*
X163000000Y-110750000D03*
X163000000Y-111750000D03*
X162000000Y-111750000D03*
%TO.N,+3V3*%
X144600000Y-99500000D03*
X147750000Y-94650000D03*
X143750000Y-113250000D03*
X151600000Y-94000000D03*
X145800000Y-96600000D03*
X142900000Y-103100000D03*
X146250000Y-115750000D03*
%TO.N,GND*%
X151100000Y-111600000D03*
X160100000Y-109800000D03*
X161200000Y-109800000D03*
X147500000Y-99300000D03*
X160100000Y-108800000D03*
%TO.N,VBUS*%
X160900000Y-102100000D03*
X159600000Y-106900000D03*
%TO.N,DEBUG*%
X146000000Y-103000000D03*
%TD*%
D18*
%TO.N,DEBUG*%
X146000000Y-103000000D02*
X146000000Y-103500000D01*
X146000000Y-103500000D02*
X143250000Y-106250000D01*
X143250000Y-106250000D02*
X133350000Y-106250000D01*
X133350000Y-106250000D02*
X133000000Y-105900000D01*
D19*
%TO.N,+3V3*%
X151600000Y-94000000D02*
X155310000Y-94000000D01*
X155310000Y-94000000D02*
X158310000Y-91000000D01*
X146250000Y-115750000D02*
X143750000Y-113250000D01*
X147750000Y-94650000D02*
X145800000Y-96600000D01*
D18*
X142900000Y-103100000D02*
X144600000Y-101400000D01*
X144600000Y-101400000D02*
X144600000Y-99500000D01*
D19*
%TO.N,VBUS*%
X160900000Y-102100000D02*
X159600000Y-103400000D01*
X159600000Y-103400000D02*
X159600000Y-106900000D01*
%TD*%
%TA.AperFunction,Conductor*%
%TO.N,GND*%
G36*
X167004043Y-89500765D02*
G01*
X167252895Y-89517075D01*
X167268953Y-89519190D01*
X167476105Y-89560395D01*
X167509535Y-89567045D01*
X167525202Y-89571243D01*
X167694947Y-89628863D01*
X167757481Y-89650091D01*
X167772458Y-89656294D01*
X167981799Y-89759529D01*
X167992460Y-89764787D01*
X168006508Y-89772897D01*
X168210464Y-89909177D01*
X168223328Y-89919048D01*
X168407749Y-90080781D01*
X168419218Y-90092250D01*
X168556196Y-90248444D01*
X168580951Y-90276671D01*
X168590825Y-90289539D01*
X168727102Y-90493492D01*
X168735212Y-90507539D01*
X168843702Y-90727534D01*
X168849909Y-90742520D01*
X168928756Y-90974797D01*
X168932954Y-90990464D01*
X168980807Y-91231035D01*
X168982925Y-91247116D01*
X168999235Y-91495956D01*
X168999500Y-91504066D01*
X168999500Y-118495933D01*
X168999235Y-118504043D01*
X168982925Y-118752883D01*
X168980807Y-118768964D01*
X168932954Y-119009535D01*
X168928756Y-119025202D01*
X168849909Y-119257479D01*
X168843702Y-119272465D01*
X168735212Y-119492460D01*
X168727102Y-119506507D01*
X168590825Y-119710460D01*
X168580951Y-119723328D01*
X168419218Y-119907749D01*
X168407749Y-119919218D01*
X168223328Y-120080951D01*
X168210460Y-120090825D01*
X168006507Y-120227102D01*
X167992460Y-120235212D01*
X167772465Y-120343702D01*
X167757479Y-120349909D01*
X167525202Y-120428756D01*
X167509535Y-120432954D01*
X167268964Y-120480807D01*
X167252883Y-120482925D01*
X167004043Y-120499235D01*
X166995933Y-120499500D01*
X128504067Y-120499500D01*
X128495957Y-120499235D01*
X128247116Y-120482925D01*
X128231035Y-120480807D01*
X127990464Y-120432954D01*
X127974797Y-120428756D01*
X127742520Y-120349909D01*
X127727534Y-120343702D01*
X127507539Y-120235212D01*
X127493492Y-120227102D01*
X127289539Y-120090825D01*
X127276671Y-120080951D01*
X127092250Y-119919218D01*
X127080781Y-119907749D01*
X126943804Y-119751557D01*
X126919045Y-119723325D01*
X126909174Y-119710460D01*
X126881910Y-119669657D01*
X126772897Y-119506507D01*
X126764787Y-119492460D01*
X126658855Y-119277652D01*
X126656294Y-119272458D01*
X126650090Y-119257479D01*
X126571243Y-119025202D01*
X126567045Y-119009535D01*
X126544568Y-118896535D01*
X126519190Y-118768953D01*
X126517075Y-118752895D01*
X126500765Y-118504043D01*
X126500500Y-118495933D01*
X126500500Y-118393713D01*
X127149500Y-118393713D01*
X127149500Y-118606286D01*
X127182753Y-118816239D01*
X127182753Y-118816241D01*
X127182754Y-118816243D01*
X127232721Y-118970026D01*
X127248444Y-119018414D01*
X127344951Y-119207820D01*
X127469890Y-119379786D01*
X127620213Y-119530109D01*
X127792179Y-119655048D01*
X127792181Y-119655049D01*
X127792184Y-119655051D01*
X127981588Y-119751557D01*
X128183757Y-119817246D01*
X128393713Y-119850500D01*
X128393714Y-119850500D01*
X128606286Y-119850500D01*
X128606287Y-119850500D01*
X128816243Y-119817246D01*
X129018412Y-119751557D01*
X129207816Y-119655051D01*
X129229789Y-119639086D01*
X129379786Y-119530109D01*
X129379788Y-119530106D01*
X129379792Y-119530104D01*
X129530104Y-119379792D01*
X129530106Y-119379788D01*
X129530109Y-119379786D01*
X129655048Y-119207820D01*
X129655047Y-119207820D01*
X129655051Y-119207816D01*
X129751557Y-119018412D01*
X129791159Y-118896530D01*
X140179500Y-118896530D01*
X140179500Y-119103469D01*
X140219868Y-119306412D01*
X140219870Y-119306420D01*
X140299058Y-119497596D01*
X140414024Y-119669657D01*
X140560342Y-119815975D01*
X140560345Y-119815977D01*
X140732402Y-119930941D01*
X140923580Y-120010130D01*
X141126530Y-120050499D01*
X141126534Y-120050500D01*
X141126535Y-120050500D01*
X141333466Y-120050500D01*
X141333467Y-120050499D01*
X141536420Y-120010130D01*
X141727598Y-119930941D01*
X141899655Y-119815977D01*
X142045977Y-119669655D01*
X142160941Y-119497598D01*
X142240130Y-119306420D01*
X142280500Y-119103465D01*
X142280500Y-118896535D01*
X142280499Y-118896530D01*
X142719500Y-118896530D01*
X142719500Y-119103469D01*
X142759868Y-119306412D01*
X142759870Y-119306420D01*
X142839058Y-119497596D01*
X142954024Y-119669657D01*
X143100342Y-119815975D01*
X143100345Y-119815977D01*
X143272402Y-119930941D01*
X143463580Y-120010130D01*
X143666530Y-120050499D01*
X143666534Y-120050500D01*
X143666535Y-120050500D01*
X143873466Y-120050500D01*
X143873467Y-120050499D01*
X144076420Y-120010130D01*
X144267598Y-119930941D01*
X144439655Y-119815977D01*
X144585977Y-119669655D01*
X144700941Y-119497598D01*
X144780130Y-119306420D01*
X144820500Y-119103465D01*
X144820500Y-118896535D01*
X144820499Y-118896530D01*
X145259500Y-118896530D01*
X145259500Y-119103469D01*
X145299868Y-119306412D01*
X145299870Y-119306420D01*
X145379058Y-119497596D01*
X145494024Y-119669657D01*
X145640342Y-119815975D01*
X145640345Y-119815977D01*
X145812402Y-119930941D01*
X146003580Y-120010130D01*
X146206530Y-120050499D01*
X146206534Y-120050500D01*
X146206535Y-120050500D01*
X146413466Y-120050500D01*
X146413467Y-120050499D01*
X146616420Y-120010130D01*
X146807598Y-119930941D01*
X146979655Y-119815977D01*
X147125977Y-119669655D01*
X147240941Y-119497598D01*
X147320130Y-119306420D01*
X147360500Y-119103465D01*
X147360500Y-118896535D01*
X147320130Y-118693580D01*
X147240941Y-118502402D01*
X147125977Y-118330345D01*
X147125975Y-118330342D01*
X146979657Y-118184024D01*
X146862745Y-118105907D01*
X146807598Y-118069059D01*
X146616420Y-117989870D01*
X146616412Y-117989868D01*
X146413469Y-117949500D01*
X146413465Y-117949500D01*
X146206535Y-117949500D01*
X146206530Y-117949500D01*
X146003587Y-117989868D01*
X146003579Y-117989870D01*
X145812403Y-118069058D01*
X145640342Y-118184024D01*
X145494024Y-118330342D01*
X145379058Y-118502403D01*
X145299870Y-118693579D01*
X145299868Y-118693587D01*
X145259500Y-118896530D01*
X144820499Y-118896530D01*
X144780130Y-118693580D01*
X144700941Y-118502402D01*
X144585977Y-118330345D01*
X144585975Y-118330342D01*
X144439657Y-118184024D01*
X144322745Y-118105907D01*
X144267598Y-118069059D01*
X144076420Y-117989870D01*
X144076412Y-117989868D01*
X143873469Y-117949500D01*
X143873465Y-117949500D01*
X143666535Y-117949500D01*
X143666530Y-117949500D01*
X143463587Y-117989868D01*
X143463579Y-117989870D01*
X143272403Y-118069058D01*
X143100342Y-118184024D01*
X142954024Y-118330342D01*
X142839058Y-118502403D01*
X142759870Y-118693579D01*
X142759868Y-118693587D01*
X142719500Y-118896530D01*
X142280499Y-118896530D01*
X142240130Y-118693580D01*
X142160941Y-118502402D01*
X142045977Y-118330345D01*
X142045975Y-118330342D01*
X141899657Y-118184024D01*
X141782745Y-118105907D01*
X141727598Y-118069059D01*
X141536420Y-117989870D01*
X141536412Y-117989868D01*
X141333469Y-117949500D01*
X141333465Y-117949500D01*
X141126535Y-117949500D01*
X141126530Y-117949500D01*
X140923587Y-117989868D01*
X140923579Y-117989870D01*
X140732403Y-118069058D01*
X140560342Y-118184024D01*
X140414024Y-118330342D01*
X140299058Y-118502403D01*
X140219870Y-118693579D01*
X140219868Y-118693587D01*
X140179500Y-118896530D01*
X129791159Y-118896530D01*
X129817246Y-118816243D01*
X129850500Y-118606287D01*
X129850500Y-118393713D01*
X129817246Y-118183757D01*
X129751557Y-117981588D01*
X129655051Y-117792184D01*
X129655049Y-117792181D01*
X129655048Y-117792179D01*
X129530109Y-117620213D01*
X129379786Y-117469890D01*
X129292369Y-117406379D01*
X151549500Y-117406379D01*
X151549500Y-117593620D01*
X151586025Y-117777243D01*
X151586027Y-117777251D01*
X151657676Y-117950228D01*
X151657681Y-117950237D01*
X151761697Y-118105907D01*
X151761700Y-118105911D01*
X151894088Y-118238299D01*
X151894092Y-118238302D01*
X152049762Y-118342318D01*
X152049768Y-118342321D01*
X152049769Y-118342322D01*
X152222749Y-118413973D01*
X152406379Y-118450499D01*
X152406383Y-118450500D01*
X152406384Y-118450500D01*
X152593617Y-118450500D01*
X152593618Y-118450499D01*
X152777251Y-118413973D01*
X152826163Y-118393713D01*
X165649500Y-118393713D01*
X165649500Y-118606286D01*
X165682753Y-118816239D01*
X165682753Y-118816241D01*
X165682754Y-118816243D01*
X165732721Y-118970026D01*
X165748444Y-119018414D01*
X165844951Y-119207820D01*
X165969890Y-119379786D01*
X166120213Y-119530109D01*
X166292179Y-119655048D01*
X166292181Y-119655049D01*
X166292184Y-119655051D01*
X166481588Y-119751557D01*
X166683757Y-119817246D01*
X166893713Y-119850500D01*
X166893714Y-119850500D01*
X167106286Y-119850500D01*
X167106287Y-119850500D01*
X167316243Y-119817246D01*
X167518412Y-119751557D01*
X167707816Y-119655051D01*
X167729789Y-119639086D01*
X167879786Y-119530109D01*
X167879788Y-119530106D01*
X167879792Y-119530104D01*
X168030104Y-119379792D01*
X168030106Y-119379788D01*
X168030109Y-119379786D01*
X168155048Y-119207820D01*
X168155047Y-119207820D01*
X168155051Y-119207816D01*
X168251557Y-119018412D01*
X168317246Y-118816243D01*
X168350500Y-118606287D01*
X168350500Y-118393713D01*
X168317246Y-118183757D01*
X168251557Y-117981588D01*
X168155051Y-117792184D01*
X168155049Y-117792181D01*
X168155048Y-117792179D01*
X168030109Y-117620213D01*
X167879786Y-117469890D01*
X167707820Y-117344951D01*
X167518414Y-117248444D01*
X167518413Y-117248443D01*
X167518412Y-117248443D01*
X167316243Y-117182754D01*
X167316241Y-117182753D01*
X167316240Y-117182753D01*
X167154957Y-117157208D01*
X167106287Y-117149500D01*
X166893713Y-117149500D01*
X166845042Y-117157208D01*
X166683760Y-117182753D01*
X166481585Y-117248444D01*
X166292179Y-117344951D01*
X166120213Y-117469890D01*
X165969890Y-117620213D01*
X165844951Y-117792179D01*
X165748444Y-117981585D01*
X165682753Y-118183760D01*
X165649500Y-118393713D01*
X152826163Y-118393713D01*
X152950231Y-118342322D01*
X152968160Y-118330342D01*
X153034914Y-118285739D01*
X153059165Y-118269534D01*
X153105908Y-118238302D01*
X153238302Y-118105908D01*
X153342322Y-117950231D01*
X153413973Y-117777251D01*
X153450500Y-117593616D01*
X153450500Y-117406384D01*
X153413973Y-117222749D01*
X153342322Y-117049769D01*
X153342321Y-117049768D01*
X153342318Y-117049762D01*
X153238302Y-116894092D01*
X153238299Y-116894088D01*
X153105911Y-116761700D01*
X153105907Y-116761697D01*
X152950237Y-116657681D01*
X152950228Y-116657676D01*
X152777251Y-116586027D01*
X152777243Y-116586025D01*
X152593620Y-116549500D01*
X152593616Y-116549500D01*
X152406384Y-116549500D01*
X152406379Y-116549500D01*
X152222756Y-116586025D01*
X152222748Y-116586027D01*
X152049771Y-116657676D01*
X152049762Y-116657681D01*
X151894092Y-116761697D01*
X151894088Y-116761700D01*
X151761700Y-116894088D01*
X151761697Y-116894092D01*
X151657681Y-117049762D01*
X151657676Y-117049771D01*
X151586027Y-117222748D01*
X151586025Y-117222756D01*
X151549500Y-117406379D01*
X129292369Y-117406379D01*
X129207820Y-117344951D01*
X129018414Y-117248444D01*
X129018413Y-117248443D01*
X129018412Y-117248443D01*
X128816243Y-117182754D01*
X128816241Y-117182753D01*
X128816240Y-117182753D01*
X128654957Y-117157208D01*
X128606287Y-117149500D01*
X128393713Y-117149500D01*
X128345042Y-117157208D01*
X128183760Y-117182753D01*
X127981585Y-117248444D01*
X127792179Y-117344951D01*
X127620213Y-117469890D01*
X127469890Y-117620213D01*
X127344951Y-117792179D01*
X127248444Y-117981585D01*
X127182753Y-118183760D01*
X127149500Y-118393713D01*
X126500500Y-118393713D01*
X126500500Y-113184108D01*
X143249500Y-113184108D01*
X143249500Y-113315891D01*
X143283608Y-113443187D01*
X143316554Y-113500250D01*
X143349500Y-113557314D01*
X143442686Y-113650500D01*
X143556814Y-113716392D01*
X143556816Y-113716392D01*
X143564326Y-113719504D01*
X143563771Y-113720841D01*
X143611010Y-113748113D01*
X145751887Y-115888990D01*
X145779163Y-115936233D01*
X145780499Y-115935680D01*
X145783607Y-115943185D01*
X145811456Y-115991421D01*
X145849500Y-116057314D01*
X145942686Y-116150500D01*
X146056814Y-116216392D01*
X146184108Y-116250500D01*
X146184110Y-116250500D01*
X146315890Y-116250500D01*
X146315892Y-116250500D01*
X146443186Y-116216392D01*
X146557314Y-116150500D01*
X146650500Y-116057314D01*
X146716392Y-115943186D01*
X146750500Y-115815892D01*
X146750500Y-115684108D01*
X146716392Y-115556814D01*
X146650500Y-115442686D01*
X146557314Y-115349500D01*
X146491421Y-115311456D01*
X146443185Y-115283607D01*
X146435680Y-115280499D01*
X146436233Y-115279163D01*
X146388990Y-115251887D01*
X145293482Y-114156379D01*
X151549500Y-114156379D01*
X151549500Y-114343620D01*
X151586025Y-114527243D01*
X151586027Y-114527251D01*
X151657676Y-114700228D01*
X151657681Y-114700237D01*
X151761697Y-114855907D01*
X151761700Y-114855911D01*
X151894088Y-114988299D01*
X151894092Y-114988302D01*
X152049762Y-115092318D01*
X152049768Y-115092321D01*
X152049769Y-115092322D01*
X152222749Y-115163973D01*
X152406379Y-115200499D01*
X152406383Y-115200500D01*
X152406384Y-115200500D01*
X152593617Y-115200500D01*
X152593618Y-115200499D01*
X152777251Y-115163973D01*
X152950231Y-115092322D01*
X153105908Y-114988302D01*
X153238302Y-114855908D01*
X153342322Y-114700231D01*
X153413973Y-114527251D01*
X153450500Y-114343616D01*
X153450500Y-114156384D01*
X153413973Y-113972749D01*
X153342322Y-113799769D01*
X153342321Y-113799768D01*
X153342318Y-113799762D01*
X153238302Y-113644092D01*
X153238299Y-113644088D01*
X153105911Y-113511700D01*
X153105907Y-113511697D01*
X152950237Y-113407681D01*
X152950228Y-113407676D01*
X152777251Y-113336027D01*
X152777243Y-113336025D01*
X152593620Y-113299500D01*
X152593616Y-113299500D01*
X152406384Y-113299500D01*
X152406379Y-113299500D01*
X152222756Y-113336025D01*
X152222748Y-113336027D01*
X152049771Y-113407676D01*
X152049762Y-113407681D01*
X151894092Y-113511697D01*
X151894088Y-113511700D01*
X151761700Y-113644088D01*
X151761697Y-113644092D01*
X151657681Y-113799762D01*
X151657676Y-113799771D01*
X151586027Y-113972748D01*
X151586025Y-113972756D01*
X151549500Y-114156379D01*
X145293482Y-114156379D01*
X144248113Y-113111010D01*
X144220841Y-113063771D01*
X144219504Y-113064326D01*
X144216392Y-113056815D01*
X144216392Y-113056814D01*
X144150500Y-112942686D01*
X144057314Y-112849500D01*
X144000250Y-112816554D01*
X143943187Y-112783608D01*
X143879539Y-112766554D01*
X143815892Y-112749500D01*
X143684108Y-112749500D01*
X143556812Y-112783608D01*
X143442686Y-112849500D01*
X143442683Y-112849502D01*
X143349502Y-112942683D01*
X143349500Y-112942686D01*
X143283608Y-113056812D01*
X143249500Y-113184108D01*
X126500500Y-113184108D01*
X126500500Y-106156379D01*
X132049500Y-106156379D01*
X132049500Y-106343620D01*
X132086025Y-106527243D01*
X132086027Y-106527251D01*
X132157676Y-106700228D01*
X132157681Y-106700237D01*
X132261697Y-106855907D01*
X132261700Y-106855911D01*
X132394088Y-106988299D01*
X132394092Y-106988302D01*
X132549762Y-107092318D01*
X132549771Y-107092323D01*
X132551857Y-107093187D01*
X132722749Y-107163973D01*
X132906379Y-107200499D01*
X132906383Y-107200500D01*
X132906384Y-107200500D01*
X133093617Y-107200500D01*
X133093618Y-107200499D01*
X133277251Y-107163973D01*
X133450231Y-107092322D01*
X133605908Y-106988302D01*
X133738302Y-106855908D01*
X133752868Y-106834108D01*
X159099500Y-106834108D01*
X159099500Y-106965891D01*
X159133608Y-107093187D01*
X159166554Y-107150250D01*
X159199500Y-107207314D01*
X159292686Y-107300500D01*
X159406814Y-107366392D01*
X159534108Y-107400500D01*
X159534110Y-107400500D01*
X159665890Y-107400500D01*
X159665892Y-107400500D01*
X159793186Y-107366392D01*
X159889226Y-107310943D01*
X162599500Y-107310943D01*
X162599500Y-107469056D01*
X162640423Y-107621783D01*
X162640426Y-107621790D01*
X162719475Y-107758709D01*
X162719479Y-107758714D01*
X162719480Y-107758716D01*
X162831284Y-107870520D01*
X162831286Y-107870521D01*
X162831290Y-107870524D01*
X162968209Y-107949573D01*
X162968216Y-107949577D01*
X163120943Y-107990500D01*
X163120945Y-107990500D01*
X163279055Y-107990500D01*
X163279057Y-107990500D01*
X163431784Y-107949577D01*
X163568716Y-107870520D01*
X163680520Y-107758716D01*
X163759577Y-107621784D01*
X163800500Y-107469057D01*
X163800500Y-107310943D01*
X163759577Y-107158216D01*
X163722033Y-107093187D01*
X163680524Y-107021290D01*
X163680518Y-107021282D01*
X163568717Y-106909481D01*
X163568709Y-106909475D01*
X163431790Y-106830426D01*
X163431786Y-106830424D01*
X163431784Y-106830423D01*
X163279057Y-106789500D01*
X163120943Y-106789500D01*
X162968216Y-106830423D01*
X162968209Y-106830426D01*
X162831290Y-106909475D01*
X162831282Y-106909481D01*
X162719481Y-107021282D01*
X162719475Y-107021290D01*
X162640426Y-107158209D01*
X162640423Y-107158216D01*
X162599500Y-107310943D01*
X159889226Y-107310943D01*
X159907314Y-107300500D01*
X160000500Y-107207314D01*
X160066392Y-107093186D01*
X160100500Y-106965892D01*
X160100500Y-106834108D01*
X160066392Y-106706814D01*
X160066388Y-106706807D01*
X160063281Y-106699304D01*
X160064616Y-106698751D01*
X160050500Y-106646062D01*
X160050500Y-103637965D01*
X160070185Y-103570926D01*
X160086819Y-103550284D01*
X160557598Y-103079505D01*
X161038991Y-102598111D01*
X161086228Y-102570842D01*
X161085674Y-102569504D01*
X161093180Y-102566393D01*
X161093186Y-102566392D01*
X161207314Y-102500500D01*
X161300500Y-102407314D01*
X161366392Y-102293186D01*
X161400500Y-102165892D01*
X161400500Y-102034108D01*
X161366392Y-101906814D01*
X161300500Y-101792686D01*
X161207314Y-101699500D01*
X161183192Y-101685573D01*
X161093188Y-101633608D01*
X161008323Y-101610869D01*
X160965892Y-101599500D01*
X160834108Y-101599500D01*
X160706812Y-101633608D01*
X160592686Y-101699500D01*
X160592683Y-101699502D01*
X160499502Y-101792683D01*
X160499500Y-101792686D01*
X160443483Y-101889711D01*
X160433607Y-101906816D01*
X160430497Y-101914324D01*
X160429162Y-101913771D01*
X160401888Y-101961006D01*
X159239513Y-103123383D01*
X159239509Y-103123389D01*
X159180201Y-103226112D01*
X159180200Y-103226117D01*
X159149500Y-103340691D01*
X159149500Y-106646062D01*
X159135383Y-106698751D01*
X159136719Y-106699304D01*
X159133608Y-106706814D01*
X159099500Y-106834108D01*
X133752868Y-106834108D01*
X133842322Y-106700231D01*
X133855116Y-106669341D01*
X133859311Y-106662134D01*
X133878863Y-106643618D01*
X133895765Y-106622644D01*
X133903854Y-106619951D01*
X133910043Y-106614091D01*
X133936504Y-106609084D01*
X133962059Y-106600579D01*
X133966486Y-106600500D01*
X143296142Y-106600500D01*
X143296144Y-106600500D01*
X143385288Y-106576614D01*
X143465212Y-106530470D01*
X146280469Y-103715212D01*
X146326614Y-103635288D01*
X146343066Y-103573887D01*
X146350500Y-103546144D01*
X146350500Y-103405015D01*
X146350716Y-103401361D01*
X146361333Y-103371780D01*
X146370185Y-103341637D01*
X146373734Y-103337231D01*
X146374321Y-103335599D01*
X146376235Y-103334128D01*
X146386819Y-103320995D01*
X146400500Y-103307314D01*
X146466392Y-103193186D01*
X146500500Y-103065892D01*
X146500500Y-102934108D01*
X146466392Y-102806814D01*
X146400500Y-102692686D01*
X146307314Y-102599500D01*
X146244408Y-102563181D01*
X146193187Y-102533608D01*
X146129539Y-102516554D01*
X146065892Y-102499500D01*
X145934108Y-102499500D01*
X145806812Y-102533608D01*
X145692686Y-102599500D01*
X145692683Y-102599502D01*
X145599502Y-102692683D01*
X145599500Y-102692686D01*
X145533608Y-102806812D01*
X145506814Y-102906812D01*
X145499500Y-102934108D01*
X145499500Y-103065892D01*
X145527325Y-103169738D01*
X145533609Y-103193188D01*
X145533609Y-103193189D01*
X145587614Y-103286728D01*
X145604087Y-103354628D01*
X145581234Y-103420655D01*
X145567908Y-103436409D01*
X143141137Y-105863181D01*
X143079814Y-105896666D01*
X143053456Y-105899500D01*
X133966486Y-105899500D01*
X133899447Y-105879815D01*
X133853692Y-105827011D01*
X133851938Y-105822986D01*
X133842322Y-105799769D01*
X133842320Y-105799766D01*
X133842318Y-105799762D01*
X133738302Y-105644092D01*
X133738299Y-105644088D01*
X133605911Y-105511700D01*
X133605907Y-105511697D01*
X133450237Y-105407681D01*
X133450228Y-105407676D01*
X133277251Y-105336027D01*
X133277243Y-105336025D01*
X133093620Y-105299500D01*
X133093616Y-105299500D01*
X132906384Y-105299500D01*
X132906379Y-105299500D01*
X132722756Y-105336025D01*
X132722748Y-105336027D01*
X132549771Y-105407676D01*
X132549762Y-105407681D01*
X132394092Y-105511697D01*
X132394088Y-105511700D01*
X132261700Y-105644088D01*
X132261697Y-105644092D01*
X132157681Y-105799762D01*
X132157676Y-105799771D01*
X132086027Y-105972748D01*
X132086025Y-105972756D01*
X132049500Y-106156379D01*
X126500500Y-106156379D01*
X126500500Y-102321153D01*
X127242000Y-102321153D01*
X127242000Y-102478846D01*
X127272761Y-102633489D01*
X127272764Y-102633501D01*
X127333102Y-102779172D01*
X127333109Y-102779185D01*
X127420710Y-102910288D01*
X127420713Y-102910292D01*
X127532207Y-103021786D01*
X127532211Y-103021789D01*
X127663314Y-103109390D01*
X127663327Y-103109397D01*
X127799715Y-103165890D01*
X127809003Y-103169737D01*
X127963653Y-103200499D01*
X127963656Y-103200500D01*
X127963658Y-103200500D01*
X128121344Y-103200500D01*
X128121345Y-103200499D01*
X128275997Y-103169737D01*
X128421679Y-103109394D01*
X128534352Y-103034108D01*
X142399500Y-103034108D01*
X142399500Y-103165892D01*
X142400531Y-103169738D01*
X142433608Y-103293187D01*
X142457246Y-103334128D01*
X142499500Y-103407314D01*
X142592686Y-103500500D01*
X142706814Y-103566392D01*
X142834108Y-103600500D01*
X142834110Y-103600500D01*
X142965890Y-103600500D01*
X142965892Y-103600500D01*
X143093186Y-103566392D01*
X143207314Y-103500500D01*
X143300500Y-103407314D01*
X143366392Y-103293186D01*
X143400500Y-103165892D01*
X143400500Y-103146544D01*
X143420185Y-103079505D01*
X143436819Y-103058863D01*
X144088369Y-102407313D01*
X144880470Y-101615212D01*
X144926614Y-101535288D01*
X144927775Y-101530952D01*
X144927780Y-101530944D01*
X144927778Y-101530944D01*
X144927778Y-101530943D01*
X162599500Y-101530943D01*
X162599500Y-101689057D01*
X162627268Y-101792686D01*
X162640423Y-101841783D01*
X162640426Y-101841790D01*
X162719475Y-101978709D01*
X162719479Y-101978714D01*
X162719480Y-101978716D01*
X162831284Y-102090520D01*
X162831286Y-102090521D01*
X162831290Y-102090524D01*
X162961833Y-102165892D01*
X162968216Y-102169577D01*
X163120943Y-102210500D01*
X163120945Y-102210500D01*
X163279055Y-102210500D01*
X163279057Y-102210500D01*
X163431784Y-102169577D01*
X163568716Y-102090520D01*
X163680520Y-101978716D01*
X163759577Y-101841784D01*
X163800500Y-101689057D01*
X163800500Y-101530943D01*
X163759577Y-101378216D01*
X163759573Y-101378209D01*
X163680524Y-101241290D01*
X163680518Y-101241282D01*
X163568717Y-101129481D01*
X163568709Y-101129475D01*
X163431790Y-101050426D01*
X163431786Y-101050424D01*
X163431784Y-101050423D01*
X163279057Y-101009500D01*
X163120943Y-101009500D01*
X162968216Y-101050423D01*
X162968209Y-101050426D01*
X162831290Y-101129475D01*
X162831282Y-101129481D01*
X162719481Y-101241282D01*
X162719475Y-101241290D01*
X162640426Y-101378209D01*
X162640423Y-101378216D01*
X162599500Y-101530943D01*
X144927778Y-101530943D01*
X144931741Y-101516149D01*
X144950500Y-101446144D01*
X144950500Y-99908676D01*
X144970185Y-99841637D01*
X144986819Y-99820995D01*
X145000500Y-99807314D01*
X145066392Y-99693186D01*
X145100500Y-99565892D01*
X145100500Y-99434108D01*
X145066392Y-99306814D01*
X145000500Y-99192686D01*
X144907314Y-99099500D01*
X144850250Y-99066554D01*
X144793187Y-99033608D01*
X144729539Y-99016554D01*
X144665892Y-98999500D01*
X144534108Y-98999500D01*
X144406812Y-99033608D01*
X144292686Y-99099500D01*
X144292683Y-99099502D01*
X144199502Y-99192683D01*
X144199500Y-99192686D01*
X144133608Y-99306812D01*
X144099500Y-99434108D01*
X144099500Y-99565891D01*
X144133608Y-99693187D01*
X144166554Y-99750250D01*
X144199500Y-99807314D01*
X144199502Y-99807316D01*
X144213181Y-99820995D01*
X144246666Y-99882318D01*
X144249500Y-99908676D01*
X144249500Y-101203456D01*
X144229815Y-101270495D01*
X144213181Y-101291137D01*
X142941137Y-102563181D01*
X142879814Y-102596666D01*
X142853456Y-102599500D01*
X142834108Y-102599500D01*
X142706812Y-102633608D01*
X142592686Y-102699500D01*
X142592683Y-102699502D01*
X142499502Y-102792683D01*
X142499500Y-102792686D01*
X142433608Y-102906812D01*
X142426294Y-102934110D01*
X142399500Y-103034108D01*
X128534352Y-103034108D01*
X128552789Y-103021789D01*
X128552792Y-103021786D01*
X128636279Y-102938300D01*
X128664286Y-102910292D01*
X128664289Y-102910289D01*
X128751894Y-102779179D01*
X128812237Y-102633497D01*
X128843000Y-102478842D01*
X128843000Y-102321158D01*
X128843000Y-102321155D01*
X128842999Y-102321153D01*
X128837436Y-102293186D01*
X128812237Y-102166503D01*
X128780764Y-102090520D01*
X128751897Y-102020827D01*
X128751890Y-102020814D01*
X128664289Y-101889711D01*
X128664286Y-101889707D01*
X128552792Y-101778213D01*
X128552788Y-101778210D01*
X128421685Y-101690609D01*
X128421672Y-101690602D01*
X128276001Y-101630264D01*
X128275989Y-101630261D01*
X128121345Y-101599500D01*
X128121342Y-101599500D01*
X127963658Y-101599500D01*
X127963655Y-101599500D01*
X127809010Y-101630261D01*
X127808998Y-101630264D01*
X127663327Y-101690602D01*
X127663314Y-101690609D01*
X127532211Y-101778210D01*
X127532207Y-101778213D01*
X127420713Y-101889707D01*
X127420710Y-101889711D01*
X127333109Y-102020814D01*
X127333102Y-102020827D01*
X127272764Y-102166498D01*
X127272761Y-102166510D01*
X127242000Y-102321153D01*
X126500500Y-102321153D01*
X126500500Y-96534108D01*
X145299500Y-96534108D01*
X145299500Y-96665891D01*
X145333608Y-96793187D01*
X145366554Y-96850250D01*
X145399500Y-96907314D01*
X145492686Y-97000500D01*
X145606814Y-97066392D01*
X145734108Y-97100500D01*
X145734110Y-97100500D01*
X145865890Y-97100500D01*
X145865892Y-97100500D01*
X145993186Y-97066392D01*
X146107314Y-97000500D01*
X146200500Y-96907314D01*
X146266392Y-96793186D01*
X146266393Y-96793180D01*
X146269504Y-96785674D01*
X146270842Y-96786228D01*
X146298111Y-96738990D01*
X147888990Y-95148111D01*
X147936228Y-95120842D01*
X147935674Y-95119504D01*
X147943180Y-95116393D01*
X147943186Y-95116392D01*
X148057314Y-95050500D01*
X148150500Y-94957314D01*
X148216392Y-94843186D01*
X148250500Y-94715892D01*
X148250500Y-94584108D01*
X148216392Y-94456814D01*
X148150500Y-94342686D01*
X148057314Y-94249500D01*
X148000250Y-94216554D01*
X147943187Y-94183608D01*
X147879539Y-94166554D01*
X147815892Y-94149500D01*
X147684108Y-94149500D01*
X147556812Y-94183608D01*
X147442686Y-94249500D01*
X147442683Y-94249502D01*
X147349502Y-94342683D01*
X147349498Y-94342689D01*
X147283606Y-94456816D01*
X147280495Y-94464328D01*
X147279161Y-94463775D01*
X147251886Y-94511009D01*
X145661009Y-96101886D01*
X145613775Y-96129161D01*
X145614328Y-96130495D01*
X145606816Y-96133606D01*
X145492689Y-96199498D01*
X145492683Y-96199502D01*
X145399502Y-96292683D01*
X145399500Y-96292686D01*
X145333608Y-96406812D01*
X145299500Y-96534108D01*
X126500500Y-96534108D01*
X126500500Y-95521153D01*
X127242000Y-95521153D01*
X127242000Y-95678846D01*
X127272761Y-95833489D01*
X127272764Y-95833501D01*
X127333102Y-95979172D01*
X127333109Y-95979185D01*
X127420710Y-96110288D01*
X127420713Y-96110292D01*
X127532207Y-96221786D01*
X127532211Y-96221789D01*
X127663314Y-96309390D01*
X127663327Y-96309397D01*
X127808998Y-96369735D01*
X127809003Y-96369737D01*
X127963653Y-96400499D01*
X127963656Y-96400500D01*
X127963658Y-96400500D01*
X128121344Y-96400500D01*
X128121345Y-96400499D01*
X128275997Y-96369737D01*
X128421679Y-96309394D01*
X128552789Y-96221789D01*
X128664289Y-96110289D01*
X128751894Y-95979179D01*
X128812237Y-95833497D01*
X128843000Y-95678842D01*
X128843000Y-95521158D01*
X128843000Y-95521155D01*
X128842999Y-95521153D01*
X128812238Y-95366510D01*
X128812237Y-95366503D01*
X128812235Y-95366498D01*
X128751897Y-95220827D01*
X128751890Y-95220814D01*
X128664289Y-95089711D01*
X128664286Y-95089707D01*
X128552792Y-94978213D01*
X128552788Y-94978210D01*
X128421685Y-94890609D01*
X128421672Y-94890602D01*
X128276001Y-94830264D01*
X128275989Y-94830261D01*
X128121345Y-94799500D01*
X128121342Y-94799500D01*
X127963658Y-94799500D01*
X127963655Y-94799500D01*
X127809010Y-94830261D01*
X127808998Y-94830264D01*
X127663327Y-94890602D01*
X127663314Y-94890609D01*
X127532211Y-94978210D01*
X127532207Y-94978213D01*
X127420713Y-95089707D01*
X127420710Y-95089711D01*
X127333109Y-95220814D01*
X127333102Y-95220827D01*
X127272764Y-95366498D01*
X127272761Y-95366510D01*
X127242000Y-95521153D01*
X126500500Y-95521153D01*
X126500500Y-93934108D01*
X151099500Y-93934108D01*
X151099500Y-94065891D01*
X151133608Y-94193187D01*
X151166121Y-94249500D01*
X151199500Y-94307314D01*
X151292686Y-94400500D01*
X151390221Y-94456812D01*
X151401425Y-94463281D01*
X151406814Y-94466392D01*
X151534108Y-94500500D01*
X151534110Y-94500500D01*
X151665890Y-94500500D01*
X151665892Y-94500500D01*
X151793186Y-94466392D01*
X151793194Y-94466387D01*
X151800696Y-94463281D01*
X151801249Y-94464618D01*
X151853937Y-94450500D01*
X155369308Y-94450500D01*
X155369309Y-94450500D01*
X155459673Y-94426286D01*
X155483887Y-94419799D01*
X155586614Y-94360489D01*
X157901158Y-92045944D01*
X157962479Y-92012461D01*
X158013028Y-92012010D01*
X158206530Y-92050499D01*
X158206534Y-92050500D01*
X158206535Y-92050500D01*
X158413466Y-92050500D01*
X158413467Y-92050499D01*
X158616420Y-92010130D01*
X158807598Y-91930941D01*
X158979655Y-91815977D01*
X159125977Y-91669655D01*
X159240941Y-91497598D01*
X159283972Y-91393713D01*
X165649500Y-91393713D01*
X165649500Y-91606286D01*
X165682711Y-91815975D01*
X165682754Y-91816243D01*
X165746509Y-92012461D01*
X165748444Y-92018414D01*
X165844951Y-92207820D01*
X165969890Y-92379786D01*
X166120213Y-92530109D01*
X166292179Y-92655048D01*
X166292181Y-92655049D01*
X166292184Y-92655051D01*
X166481588Y-92751557D01*
X166683757Y-92817246D01*
X166893713Y-92850500D01*
X166893714Y-92850500D01*
X167106286Y-92850500D01*
X167106287Y-92850500D01*
X167316243Y-92817246D01*
X167518412Y-92751557D01*
X167707816Y-92655051D01*
X167729789Y-92639086D01*
X167879786Y-92530109D01*
X167879788Y-92530106D01*
X167879792Y-92530104D01*
X168030104Y-92379792D01*
X168030106Y-92379788D01*
X168030109Y-92379786D01*
X168155048Y-92207820D01*
X168155047Y-92207820D01*
X168155051Y-92207816D01*
X168251557Y-92018412D01*
X168317246Y-91816243D01*
X168350500Y-91606287D01*
X168350500Y-91393713D01*
X168317246Y-91183757D01*
X168251557Y-90981588D01*
X168155051Y-90792184D01*
X168155049Y-90792181D01*
X168155048Y-90792179D01*
X168030109Y-90620213D01*
X167879786Y-90469890D01*
X167707820Y-90344951D01*
X167518414Y-90248444D01*
X167518413Y-90248443D01*
X167518412Y-90248443D01*
X167316243Y-90182754D01*
X167316241Y-90182753D01*
X167316240Y-90182753D01*
X167154957Y-90157208D01*
X167106287Y-90149500D01*
X166893713Y-90149500D01*
X166845042Y-90157208D01*
X166683760Y-90182753D01*
X166481585Y-90248444D01*
X166292179Y-90344951D01*
X166120213Y-90469890D01*
X165969890Y-90620213D01*
X165844951Y-90792179D01*
X165748444Y-90981585D01*
X165682753Y-91183760D01*
X165649500Y-91393713D01*
X159283972Y-91393713D01*
X159320130Y-91306420D01*
X159360500Y-91103465D01*
X159360500Y-90896535D01*
X159320130Y-90693580D01*
X159240941Y-90502402D01*
X159125977Y-90330345D01*
X159125975Y-90330342D01*
X158979657Y-90184024D01*
X158842306Y-90092250D01*
X158807598Y-90069059D01*
X158616420Y-89989870D01*
X158616412Y-89989868D01*
X158413469Y-89949500D01*
X158413465Y-89949500D01*
X158206535Y-89949500D01*
X158206530Y-89949500D01*
X158003587Y-89989868D01*
X158003579Y-89989870D01*
X157812403Y-90069058D01*
X157640342Y-90184024D01*
X157494024Y-90330342D01*
X157379058Y-90502403D01*
X157299870Y-90693579D01*
X157299868Y-90693587D01*
X157259500Y-90896530D01*
X157259500Y-91103469D01*
X157297989Y-91296969D01*
X157291762Y-91366561D01*
X157264053Y-91408841D01*
X155159716Y-93513181D01*
X155098393Y-93546666D01*
X155072035Y-93549500D01*
X151853937Y-93549500D01*
X151801249Y-93535381D01*
X151800696Y-93536719D01*
X151793188Y-93533609D01*
X151793186Y-93533608D01*
X151665892Y-93499500D01*
X151534108Y-93499500D01*
X151406812Y-93533608D01*
X151292686Y-93599500D01*
X151292683Y-93599502D01*
X151199502Y-93692683D01*
X151199500Y-93692686D01*
X151133608Y-93806812D01*
X151099500Y-93934108D01*
X126500500Y-93934108D01*
X126500500Y-91504066D01*
X126500765Y-91495956D01*
X126507466Y-91393713D01*
X127149500Y-91393713D01*
X127149500Y-91606286D01*
X127182711Y-91815975D01*
X127182754Y-91816243D01*
X127246509Y-92012461D01*
X127248444Y-92018414D01*
X127344951Y-92207820D01*
X127469890Y-92379786D01*
X127620213Y-92530109D01*
X127792179Y-92655048D01*
X127792181Y-92655049D01*
X127792184Y-92655051D01*
X127981588Y-92751557D01*
X128183757Y-92817246D01*
X128393713Y-92850500D01*
X128393714Y-92850500D01*
X128606286Y-92850500D01*
X128606287Y-92850500D01*
X128816243Y-92817246D01*
X129018412Y-92751557D01*
X129207816Y-92655051D01*
X129229789Y-92639086D01*
X129379786Y-92530109D01*
X129379788Y-92530106D01*
X129379792Y-92530104D01*
X129530104Y-92379792D01*
X129530106Y-92379788D01*
X129530109Y-92379786D01*
X129655048Y-92207820D01*
X129655047Y-92207820D01*
X129655051Y-92207816D01*
X129751557Y-92018412D01*
X129817246Y-91816243D01*
X129850500Y-91606287D01*
X129850500Y-91393713D01*
X129817246Y-91183757D01*
X129751557Y-90981588D01*
X129708218Y-90896530D01*
X140179500Y-90896530D01*
X140179500Y-91103469D01*
X140219868Y-91306412D01*
X140219870Y-91306420D01*
X140299058Y-91497596D01*
X140414024Y-91669657D01*
X140560342Y-91815975D01*
X140560345Y-91815977D01*
X140732402Y-91930941D01*
X140923580Y-92010130D01*
X141126530Y-92050499D01*
X141126534Y-92050500D01*
X141126535Y-92050500D01*
X141333466Y-92050500D01*
X141333467Y-92050499D01*
X141536420Y-92010130D01*
X141727598Y-91930941D01*
X141899655Y-91815977D01*
X142045977Y-91669655D01*
X142160941Y-91497598D01*
X142240130Y-91306420D01*
X142280500Y-91103465D01*
X142280500Y-90896535D01*
X142280499Y-90896530D01*
X142719500Y-90896530D01*
X142719500Y-91103469D01*
X142759868Y-91306412D01*
X142759870Y-91306420D01*
X142839058Y-91497596D01*
X142954024Y-91669657D01*
X143100342Y-91815975D01*
X143100345Y-91815977D01*
X143272402Y-91930941D01*
X143463580Y-92010130D01*
X143666530Y-92050499D01*
X143666534Y-92050500D01*
X143666535Y-92050500D01*
X143873466Y-92050500D01*
X143873467Y-92050499D01*
X144076420Y-92010130D01*
X144267598Y-91930941D01*
X144439655Y-91815977D01*
X144585977Y-91669655D01*
X144700941Y-91497598D01*
X144780130Y-91306420D01*
X144820500Y-91103465D01*
X144820500Y-90896535D01*
X144820499Y-90896530D01*
X145259500Y-90896530D01*
X145259500Y-91103469D01*
X145299868Y-91306412D01*
X145299870Y-91306420D01*
X145379058Y-91497596D01*
X145494024Y-91669657D01*
X145640342Y-91815975D01*
X145640345Y-91815977D01*
X145812402Y-91930941D01*
X146003580Y-92010130D01*
X146206530Y-92050499D01*
X146206534Y-92050500D01*
X146206535Y-92050500D01*
X146413466Y-92050500D01*
X146413467Y-92050499D01*
X146616420Y-92010130D01*
X146807598Y-91930941D01*
X146979655Y-91815977D01*
X147125977Y-91669655D01*
X147240941Y-91497598D01*
X147320130Y-91306420D01*
X147360500Y-91103465D01*
X147360500Y-90896535D01*
X147360499Y-90896530D01*
X152179500Y-90896530D01*
X152179500Y-91103469D01*
X152219868Y-91306412D01*
X152219870Y-91306420D01*
X152299058Y-91497596D01*
X152414024Y-91669657D01*
X152560342Y-91815975D01*
X152560345Y-91815977D01*
X152732402Y-91930941D01*
X152923580Y-92010130D01*
X153126530Y-92050499D01*
X153126534Y-92050500D01*
X153126535Y-92050500D01*
X153333466Y-92050500D01*
X153333467Y-92050499D01*
X153536420Y-92010130D01*
X153727598Y-91930941D01*
X153899655Y-91815977D01*
X154045977Y-91669655D01*
X154160941Y-91497598D01*
X154240130Y-91306420D01*
X154280500Y-91103465D01*
X154280500Y-90896535D01*
X154280499Y-90896530D01*
X154719500Y-90896530D01*
X154719500Y-91103469D01*
X154759868Y-91306412D01*
X154759870Y-91306420D01*
X154839058Y-91497596D01*
X154954024Y-91669657D01*
X155100342Y-91815975D01*
X155100345Y-91815977D01*
X155272402Y-91930941D01*
X155463580Y-92010130D01*
X155666530Y-92050499D01*
X155666534Y-92050500D01*
X155666535Y-92050500D01*
X155873466Y-92050500D01*
X155873467Y-92050499D01*
X156076420Y-92010130D01*
X156267598Y-91930941D01*
X156439655Y-91815977D01*
X156585977Y-91669655D01*
X156700941Y-91497598D01*
X156780130Y-91306420D01*
X156820500Y-91103465D01*
X156820500Y-90896535D01*
X156780130Y-90693580D01*
X156700941Y-90502402D01*
X156585977Y-90330345D01*
X156585975Y-90330342D01*
X156439657Y-90184024D01*
X156302306Y-90092250D01*
X156267598Y-90069059D01*
X156076420Y-89989870D01*
X156076412Y-89989868D01*
X155873469Y-89949500D01*
X155873465Y-89949500D01*
X155666535Y-89949500D01*
X155666530Y-89949500D01*
X155463587Y-89989868D01*
X155463579Y-89989870D01*
X155272403Y-90069058D01*
X155100342Y-90184024D01*
X154954024Y-90330342D01*
X154839058Y-90502403D01*
X154759870Y-90693579D01*
X154759868Y-90693587D01*
X154719500Y-90896530D01*
X154280499Y-90896530D01*
X154240130Y-90693580D01*
X154160941Y-90502402D01*
X154045977Y-90330345D01*
X154045975Y-90330342D01*
X153899657Y-90184024D01*
X153762306Y-90092250D01*
X153727598Y-90069059D01*
X153536420Y-89989870D01*
X153536412Y-89989868D01*
X153333469Y-89949500D01*
X153333465Y-89949500D01*
X153126535Y-89949500D01*
X153126530Y-89949500D01*
X152923587Y-89989868D01*
X152923579Y-89989870D01*
X152732403Y-90069058D01*
X152560342Y-90184024D01*
X152414024Y-90330342D01*
X152299058Y-90502403D01*
X152219870Y-90693579D01*
X152219868Y-90693587D01*
X152179500Y-90896530D01*
X147360499Y-90896530D01*
X147320130Y-90693580D01*
X147240941Y-90502402D01*
X147125977Y-90330345D01*
X147125975Y-90330342D01*
X146979657Y-90184024D01*
X146842306Y-90092250D01*
X146807598Y-90069059D01*
X146616420Y-89989870D01*
X146616412Y-89989868D01*
X146413469Y-89949500D01*
X146413465Y-89949500D01*
X146206535Y-89949500D01*
X146206530Y-89949500D01*
X146003587Y-89989868D01*
X146003579Y-89989870D01*
X145812403Y-90069058D01*
X145640342Y-90184024D01*
X145494024Y-90330342D01*
X145379058Y-90502403D01*
X145299870Y-90693579D01*
X145299868Y-90693587D01*
X145259500Y-90896530D01*
X144820499Y-90896530D01*
X144780130Y-90693580D01*
X144700941Y-90502402D01*
X144585977Y-90330345D01*
X144585975Y-90330342D01*
X144439657Y-90184024D01*
X144302306Y-90092250D01*
X144267598Y-90069059D01*
X144076420Y-89989870D01*
X144076412Y-89989868D01*
X143873469Y-89949500D01*
X143873465Y-89949500D01*
X143666535Y-89949500D01*
X143666530Y-89949500D01*
X143463587Y-89989868D01*
X143463579Y-89989870D01*
X143272403Y-90069058D01*
X143100342Y-90184024D01*
X142954024Y-90330342D01*
X142839058Y-90502403D01*
X142759870Y-90693579D01*
X142759868Y-90693587D01*
X142719500Y-90896530D01*
X142280499Y-90896530D01*
X142240130Y-90693580D01*
X142160941Y-90502402D01*
X142045977Y-90330345D01*
X142045975Y-90330342D01*
X141899657Y-90184024D01*
X141762306Y-90092250D01*
X141727598Y-90069059D01*
X141536420Y-89989870D01*
X141536412Y-89989868D01*
X141333469Y-89949500D01*
X141333465Y-89949500D01*
X141126535Y-89949500D01*
X141126530Y-89949500D01*
X140923587Y-89989868D01*
X140923579Y-89989870D01*
X140732403Y-90069058D01*
X140560342Y-90184024D01*
X140414024Y-90330342D01*
X140299058Y-90502403D01*
X140219870Y-90693579D01*
X140219868Y-90693587D01*
X140179500Y-90896530D01*
X129708218Y-90896530D01*
X129655051Y-90792184D01*
X129655049Y-90792181D01*
X129655048Y-90792179D01*
X129530109Y-90620213D01*
X129379786Y-90469890D01*
X129207820Y-90344951D01*
X129018414Y-90248444D01*
X129018413Y-90248443D01*
X129018412Y-90248443D01*
X128816243Y-90182754D01*
X128816241Y-90182753D01*
X128816240Y-90182753D01*
X128654957Y-90157208D01*
X128606287Y-90149500D01*
X128393713Y-90149500D01*
X128345042Y-90157208D01*
X128183760Y-90182753D01*
X127981585Y-90248444D01*
X127792179Y-90344951D01*
X127620213Y-90469890D01*
X127469890Y-90620213D01*
X127344951Y-90792179D01*
X127248444Y-90981585D01*
X127182753Y-91183760D01*
X127149500Y-91393713D01*
X126507466Y-91393713D01*
X126508317Y-91380731D01*
X126508317Y-91380730D01*
X126510101Y-91353517D01*
X126517075Y-91247104D01*
X126519190Y-91231048D01*
X126567045Y-90990462D01*
X126571243Y-90974797D01*
X126597811Y-90896530D01*
X126650093Y-90742512D01*
X126656291Y-90727547D01*
X126764790Y-90507533D01*
X126772893Y-90493498D01*
X126909182Y-90289527D01*
X126919039Y-90276681D01*
X127080786Y-90092244D01*
X127092244Y-90080786D01*
X127276681Y-89919039D01*
X127289527Y-89909182D01*
X127493498Y-89772893D01*
X127507533Y-89764790D01*
X127727547Y-89656291D01*
X127742512Y-89650093D01*
X127906762Y-89594337D01*
X127974797Y-89571243D01*
X127990464Y-89567045D01*
X128231048Y-89519190D01*
X128247102Y-89517075D01*
X128495957Y-89500765D01*
X128504067Y-89500500D01*
X128565892Y-89500500D01*
X166934108Y-89500500D01*
X166995933Y-89500500D01*
X167004043Y-89500765D01*
G37*
%TD.AperFunction*%
%TD*%
M02*
