%TF.GenerationSoftware,KiCad,Pcbnew,9.0.3*%
%TF.CreationDate,2025-08-26T21:56:11+08:00*%
%TF.ProjectId,firstm32,66697273-746d-4333-922e-6b696361645f,rev?*%
%TF.SameCoordinates,Original*%
%TF.FileFunction,Legend,Bot*%
%TF.FilePolarity,Positive*%
%FSLAX46Y46*%
G04 Gerber Fmt 4.6, Leading zero omitted, Abs format (unit mm)*
G04 Created by KiCad (PCBNEW 9.0.3) date 2025-08-26 21:56:11*
%MOMM*%
%LPD*%
G01*
G04 APERTURE LIST*
%ADD10C,0.150000*%
%ADD11C,0.700000*%
%ADD12O,2.000000X1.100000*%
%ADD13O,1.800000X1.200000*%
%ADD14C,2.200000*%
%ADD15C,1.500000*%
%ADD16R,1.700000X1.700000*%
%ADD17C,1.700000*%
%ADD18C,1.100000*%
G04 APERTURE END LIST*
D10*
X161483333Y-119616033D02*
X161483333Y-120116033D01*
X161483333Y-120116033D02*
X161516666Y-120216033D01*
X161516666Y-120216033D02*
X161583333Y-120282700D01*
X161583333Y-120282700D02*
X161683333Y-120316033D01*
X161683333Y-120316033D02*
X161750000Y-120316033D01*
X160816667Y-120316033D02*
X161150000Y-120316033D01*
X161150000Y-120316033D02*
X161150000Y-119616033D01*
X160183333Y-120249366D02*
X160216666Y-120282700D01*
X160216666Y-120282700D02*
X160316666Y-120316033D01*
X160316666Y-120316033D02*
X160383333Y-120316033D01*
X160383333Y-120316033D02*
X160483333Y-120282700D01*
X160483333Y-120282700D02*
X160550000Y-120216033D01*
X160550000Y-120216033D02*
X160583333Y-120149366D01*
X160583333Y-120149366D02*
X160616666Y-120016033D01*
X160616666Y-120016033D02*
X160616666Y-119916033D01*
X160616666Y-119916033D02*
X160583333Y-119782700D01*
X160583333Y-119782700D02*
X160550000Y-119716033D01*
X160550000Y-119716033D02*
X160483333Y-119649366D01*
X160483333Y-119649366D02*
X160383333Y-119616033D01*
X160383333Y-119616033D02*
X160316666Y-119616033D01*
X160316666Y-119616033D02*
X160216666Y-119649366D01*
X160216666Y-119649366D02*
X160183333Y-119682700D01*
X159683333Y-119616033D02*
X159683333Y-120116033D01*
X159683333Y-120116033D02*
X159716666Y-120216033D01*
X159716666Y-120216033D02*
X159783333Y-120282700D01*
X159783333Y-120282700D02*
X159883333Y-120316033D01*
X159883333Y-120316033D02*
X159950000Y-120316033D01*
X159016667Y-120316033D02*
X159350000Y-120316033D01*
X159350000Y-120316033D02*
X159350000Y-119616033D01*
X158383333Y-120249366D02*
X158416666Y-120282700D01*
X158416666Y-120282700D02*
X158516666Y-120316033D01*
X158516666Y-120316033D02*
X158583333Y-120316033D01*
X158583333Y-120316033D02*
X158683333Y-120282700D01*
X158683333Y-120282700D02*
X158750000Y-120216033D01*
X158750000Y-120216033D02*
X158783333Y-120149366D01*
X158783333Y-120149366D02*
X158816666Y-120016033D01*
X158816666Y-120016033D02*
X158816666Y-119916033D01*
X158816666Y-119916033D02*
X158783333Y-119782700D01*
X158783333Y-119782700D02*
X158750000Y-119716033D01*
X158750000Y-119716033D02*
X158683333Y-119649366D01*
X158683333Y-119649366D02*
X158583333Y-119616033D01*
X158583333Y-119616033D02*
X158516666Y-119616033D01*
X158516666Y-119616033D02*
X158416666Y-119649366D01*
X158416666Y-119649366D02*
X158383333Y-119682700D01*
X157883333Y-119616033D02*
X157883333Y-120116033D01*
X157883333Y-120116033D02*
X157916666Y-120216033D01*
X157916666Y-120216033D02*
X157983333Y-120282700D01*
X157983333Y-120282700D02*
X158083333Y-120316033D01*
X158083333Y-120316033D02*
X158150000Y-120316033D01*
X157216667Y-120316033D02*
X157550000Y-120316033D01*
X157550000Y-120316033D02*
X157550000Y-119616033D01*
X156583333Y-120249366D02*
X156616666Y-120282700D01*
X156616666Y-120282700D02*
X156716666Y-120316033D01*
X156716666Y-120316033D02*
X156783333Y-120316033D01*
X156783333Y-120316033D02*
X156883333Y-120282700D01*
X156883333Y-120282700D02*
X156950000Y-120216033D01*
X156950000Y-120216033D02*
X156983333Y-120149366D01*
X156983333Y-120149366D02*
X157016666Y-120016033D01*
X157016666Y-120016033D02*
X157016666Y-119916033D01*
X157016666Y-119916033D02*
X156983333Y-119782700D01*
X156983333Y-119782700D02*
X156950000Y-119716033D01*
X156950000Y-119716033D02*
X156883333Y-119649366D01*
X156883333Y-119649366D02*
X156783333Y-119616033D01*
X156783333Y-119616033D02*
X156716666Y-119616033D01*
X156716666Y-119616033D02*
X156616666Y-119649366D01*
X156616666Y-119649366D02*
X156583333Y-119682700D01*
X156083333Y-119616033D02*
X156083333Y-120116033D01*
X156083333Y-120116033D02*
X156116666Y-120216033D01*
X156116666Y-120216033D02*
X156183333Y-120282700D01*
X156183333Y-120282700D02*
X156283333Y-120316033D01*
X156283333Y-120316033D02*
X156350000Y-120316033D01*
X155416667Y-120316033D02*
X155750000Y-120316033D01*
X155750000Y-120316033D02*
X155750000Y-119616033D01*
X154783333Y-120249366D02*
X154816666Y-120282700D01*
X154816666Y-120282700D02*
X154916666Y-120316033D01*
X154916666Y-120316033D02*
X154983333Y-120316033D01*
X154983333Y-120316033D02*
X155083333Y-120282700D01*
X155083333Y-120282700D02*
X155150000Y-120216033D01*
X155150000Y-120216033D02*
X155183333Y-120149366D01*
X155183333Y-120149366D02*
X155216666Y-120016033D01*
X155216666Y-120016033D02*
X155216666Y-119916033D01*
X155216666Y-119916033D02*
X155183333Y-119782700D01*
X155183333Y-119782700D02*
X155150000Y-119716033D01*
X155150000Y-119716033D02*
X155083333Y-119649366D01*
X155083333Y-119649366D02*
X154983333Y-119616033D01*
X154983333Y-119616033D02*
X154916666Y-119616033D01*
X154916666Y-119616033D02*
X154816666Y-119649366D01*
X154816666Y-119649366D02*
X154783333Y-119682700D01*
%LPC*%
D11*
%TO.C,J1*%
X163200000Y-107390000D03*
X163200000Y-101610000D03*
D12*
X162670000Y-108820000D03*
D13*
X166880000Y-108820000D03*
D12*
X162670000Y-100180000D03*
D13*
X166880000Y-100180000D03*
%TD*%
D14*
%TO.C,H2*%
X167000000Y-91500000D03*
%TD*%
%TO.C,H4*%
X128500000Y-118500000D03*
%TD*%
D15*
%TO.C,TP4*%
X167000000Y-96000000D03*
%TD*%
D16*
%TO.C,J2*%
X150690000Y-91000000D03*
D17*
X153230000Y-91000000D03*
X155770000Y-91000000D03*
X158310000Y-91000000D03*
%TD*%
D16*
%TO.C,J4*%
X138690000Y-119000000D03*
D17*
X141230000Y-119000000D03*
X143770000Y-119000000D03*
X146310000Y-119000000D03*
%TD*%
D15*
%TO.C,TP2*%
X152500000Y-117500000D03*
%TD*%
D18*
%TO.C,SW1*%
X128042500Y-102400000D03*
X128042500Y-95600000D03*
%TD*%
D14*
%TO.C,H3*%
X167000000Y-118500000D03*
%TD*%
%TO.C,H1*%
X128500000Y-91500000D03*
%TD*%
D15*
%TO.C,TP1*%
X133000000Y-106250000D03*
%TD*%
%TO.C,TP3*%
X152500000Y-114250000D03*
%TD*%
D16*
%TO.C,J3*%
X138690000Y-91000000D03*
D17*
X141230000Y-91000000D03*
X143770000Y-91000000D03*
X146310000Y-91000000D03*
%TD*%
%LPD*%
M02*
