%TF.GenerationSoftware,KiCad,Pcbnew,9.0.3*%
%TF.CreationDate,2025-08-26T21:56:11+08:00*%
%TF.ProjectId,firstm32,66697273-746d-4333-922e-6b696361645f,rev?*%
%TF.SameCoordinates,Original*%
%TF.FileFunction,Soldermask,Top*%
%TF.FilePolarity,Negative*%
%FSLAX46Y46*%
G04 Gerber Fmt 4.6, Leading zero omitted, Abs format (unit mm)*
G04 Created by KiCad (PCBNEW 9.0.3) date 2025-08-26 21:56:11*
%MOMM*%
%LPD*%
G01*
G04 APERTURE LIST*
G04 Aperture macros list*
%AMRoundRect*
0 Rectangle with rounded corners*
0 $1 Rounding radius*
0 $2 $3 $4 $5 $6 $7 $8 $9 X,Y pos of 4 corners*
0 Add a 4 corners polygon primitive as box body*
4,1,4,$2,$3,$4,$5,$6,$7,$8,$9,$2,$3,0*
0 Add four circle primitives for the rounded corners*
1,1,$1+$1,$2,$3*
1,1,$1+$1,$4,$5*
1,1,$1+$1,$6,$7*
1,1,$1+$1,$8,$9*
0 Add four rect primitives between the rounded corners*
20,1,$1+$1,$2,$3,$4,$5,0*
20,1,$1+$1,$4,$5,$6,$7,0*
20,1,$1+$1,$6,$7,$8,$9,0*
20,1,$1+$1,$8,$9,$2,$3,0*%
G04 Aperture macros list end*
%ADD10C,0.700000*%
%ADD11R,1.100000X0.550000*%
%ADD12R,1.100000X0.300000*%
%ADD13O,2.000000X1.100000*%
%ADD14O,1.800000X1.200000*%
%ADD15RoundRect,0.135000X0.135000X0.185000X-0.135000X0.185000X-0.135000X-0.185000X0.135000X-0.185000X0*%
%ADD16RoundRect,0.135000X-0.135000X-0.185000X0.135000X-0.185000X0.135000X0.185000X-0.135000X0.185000X0*%
%ADD17RoundRect,0.075000X-0.662500X-0.075000X0.662500X-0.075000X0.662500X0.075000X-0.662500X0.075000X0*%
%ADD18RoundRect,0.075000X-0.075000X-0.662500X0.075000X-0.662500X0.075000X0.662500X-0.075000X0.662500X0*%
%ADD19RoundRect,0.140000X-0.140000X-0.170000X0.140000X-0.170000X0.140000X0.170000X-0.140000X0.170000X0*%
%ADD20C,1.500000*%
%ADD21RoundRect,0.140000X-0.170000X0.140000X-0.170000X-0.140000X0.170000X-0.140000X0.170000X0.140000X0*%
%ADD22RoundRect,0.243750X0.456250X-0.243750X0.456250X0.243750X-0.456250X0.243750X-0.456250X-0.243750X0*%
%ADD23RoundRect,0.225000X-0.250000X0.225000X-0.250000X-0.225000X0.250000X-0.225000X0.250000X0.225000X0*%
%ADD24RoundRect,0.375000X-0.375000X0.625000X-0.375000X-0.625000X0.375000X-0.625000X0.375000X0.625000X0*%
%ADD25RoundRect,0.500000X-1.400000X0.500000X-1.400000X-0.500000X1.400000X-0.500000X1.400000X0.500000X0*%
%ADD26R,1.700000X1.700000*%
%ADD27C,1.700000*%
%ADD28RoundRect,0.140000X0.140000X0.170000X-0.140000X0.170000X-0.140000X-0.170000X0.140000X-0.170000X0*%
%ADD29RoundRect,0.200000X-0.275000X0.200000X-0.275000X-0.200000X0.275000X-0.200000X0.275000X0.200000X0*%
%ADD30RoundRect,0.225000X-0.225000X-0.250000X0.225000X-0.250000X0.225000X0.250000X-0.225000X0.250000X0*%
%ADD31RoundRect,0.250000X-0.250000X-0.475000X0.250000X-0.475000X0.250000X0.475000X-0.250000X0.475000X0*%
%ADD32RoundRect,0.135000X0.185000X-0.135000X0.185000X0.135000X-0.185000X0.135000X-0.185000X-0.135000X0*%
%ADD33RoundRect,0.250000X0.475000X-0.250000X0.475000X0.250000X-0.475000X0.250000X-0.475000X-0.250000X0*%
%ADD34C,1.100000*%
%ADD35R,2.700000X1.200000*%
%ADD36RoundRect,0.140000X0.170000X-0.140000X0.170000X0.140000X-0.170000X0.140000X-0.170000X-0.140000X0*%
%ADD37R,1.200000X1.400000*%
%ADD38RoundRect,0.218750X0.218750X0.256250X-0.218750X0.256250X-0.218750X-0.256250X0.218750X-0.256250X0*%
G04 APERTURE END LIST*
D10*
%TO.C,J1*%
X163200000Y-107390000D03*
X163200000Y-101610000D03*
D11*
X162120000Y-107700000D03*
X162120000Y-106900000D03*
D12*
X162120000Y-105750000D03*
X162120000Y-104750000D03*
X162120000Y-105250000D03*
X162120000Y-103250000D03*
D11*
X162120000Y-106900000D03*
X162120000Y-107700000D03*
X162120000Y-101300000D03*
X162120000Y-102100000D03*
D12*
X162120000Y-102750000D03*
X162120000Y-103750000D03*
X162120000Y-104250000D03*
X162120000Y-106250000D03*
D11*
X162120000Y-102100000D03*
X162120000Y-101300000D03*
D13*
X162670000Y-108820000D03*
D14*
X166880000Y-108820000D03*
D13*
X162670000Y-100180000D03*
D14*
X166880000Y-100180000D03*
%TD*%
D15*
%TO.C,R8*%
X140280000Y-115800000D03*
X141300000Y-115800000D03*
%TD*%
D16*
%TO.C,R7*%
X144800000Y-115800000D03*
X143780000Y-115800000D03*
%TD*%
D17*
%TO.C,U2*%
X144337500Y-102250000D03*
X144337500Y-102750000D03*
X144337500Y-103250000D03*
X144337500Y-103750000D03*
X144337500Y-104250000D03*
X144337500Y-104750000D03*
X144337500Y-105250000D03*
X144337500Y-105750000D03*
X144337500Y-106250000D03*
X144337500Y-106750000D03*
X144337500Y-107250000D03*
X144337500Y-107750000D03*
D18*
X145750000Y-109162500D03*
X146250000Y-109162500D03*
X146750000Y-109162500D03*
X147250000Y-109162500D03*
X147750000Y-109162500D03*
X148250000Y-109162500D03*
X148750000Y-109162500D03*
X149250000Y-109162500D03*
X149750000Y-109162500D03*
X150250000Y-109162500D03*
X150750000Y-109162500D03*
X151250000Y-109162500D03*
D17*
X152662500Y-107750000D03*
X152662500Y-107250000D03*
X152662500Y-106750000D03*
X152662500Y-106250000D03*
X152662500Y-105750000D03*
X152662500Y-105250000D03*
X152662500Y-104750000D03*
X152662500Y-104250000D03*
X152662500Y-103750000D03*
X152662500Y-103250000D03*
X152662500Y-102750000D03*
X152662500Y-102250000D03*
D18*
X151250000Y-100837500D03*
X150750000Y-100837500D03*
X150250000Y-100837500D03*
X149750000Y-100837500D03*
X149250000Y-100837500D03*
X148750000Y-100837500D03*
X148250000Y-100837500D03*
X147750000Y-100837500D03*
X147250000Y-100837500D03*
X146750000Y-100837500D03*
X146250000Y-100837500D03*
X145750000Y-100837500D03*
%TD*%
D19*
%TO.C,C3*%
X145520000Y-99250000D03*
X146480000Y-99250000D03*
%TD*%
D20*
%TO.C,TP4*%
X167000000Y-96000000D03*
%TD*%
D16*
%TO.C,R2*%
X159740000Y-105750000D03*
X160760000Y-105750000D03*
%TD*%
D21*
%TO.C,C6*%
X142750000Y-106520000D03*
X142750000Y-107480000D03*
%TD*%
D22*
%TO.C,D2*%
X130000000Y-113937500D03*
X130000000Y-112062500D03*
%TD*%
D23*
%TO.C,C7*%
X141250000Y-106725000D03*
X141250000Y-108275000D03*
%TD*%
D24*
%TO.C,U1*%
X160050000Y-111600000D03*
X157750000Y-111600000D03*
D25*
X157750000Y-117900000D03*
D24*
X155450000Y-111600000D03*
%TD*%
D26*
%TO.C,J2*%
X150690000Y-91000000D03*
D27*
X153230000Y-91000000D03*
X155770000Y-91000000D03*
X158310000Y-91000000D03*
%TD*%
D26*
%TO.C,J4*%
X138690000Y-119000000D03*
D27*
X141230000Y-119000000D03*
X143770000Y-119000000D03*
X146310000Y-119000000D03*
%TD*%
D28*
%TO.C,C2*%
X152230000Y-110750000D03*
X151270000Y-110750000D03*
%TD*%
D29*
%TO.C,R5*%
X133000000Y-108175000D03*
X133000000Y-109825000D03*
%TD*%
D23*
%TO.C,C8*%
X138000000Y-108475000D03*
X138000000Y-110025000D03*
%TD*%
D21*
%TO.C,C11*%
X141500000Y-104270000D03*
X141500000Y-105230000D03*
%TD*%
D30*
%TO.C,C5*%
X145225000Y-98000000D03*
X146775000Y-98000000D03*
%TD*%
D31*
%TO.C,C12*%
X156800000Y-109000000D03*
X158700000Y-109000000D03*
%TD*%
D32*
%TO.C,R4*%
X157500000Y-103575000D03*
X157500000Y-102555000D03*
%TD*%
D33*
%TO.C,C13*%
X162500000Y-114950000D03*
X162500000Y-113050000D03*
%TD*%
D20*
%TO.C,TP2*%
X152500000Y-117500000D03*
%TD*%
D34*
%TO.C,SW1*%
X128042500Y-102400000D03*
X128042500Y-95600000D03*
D35*
X131452500Y-101500000D03*
X131452500Y-99000000D03*
X131452500Y-96500000D03*
%TD*%
D21*
%TO.C,C9*%
X144500000Y-109500000D03*
X144500000Y-110460000D03*
%TD*%
D29*
%TO.C,R6*%
X130000000Y-108175000D03*
X130000000Y-109825000D03*
%TD*%
D21*
%TO.C,C1*%
X154250000Y-101790000D03*
X154250000Y-102750000D03*
%TD*%
D16*
%TO.C,R3*%
X159690000Y-103000000D03*
X160710000Y-103000000D03*
%TD*%
D36*
%TO.C,C4*%
X142750000Y-102250000D03*
X142750000Y-101290000D03*
%TD*%
D20*
%TO.C,TP1*%
X133000000Y-106250000D03*
%TD*%
D19*
%TO.C,R1*%
X135000000Y-99000000D03*
X135960000Y-99000000D03*
%TD*%
D22*
%TO.C,D1*%
X133000000Y-113937500D03*
X133000000Y-112062500D03*
%TD*%
D20*
%TO.C,TP3*%
X152500000Y-114250000D03*
%TD*%
D37*
%TO.C,Y1*%
X138120000Y-102400000D03*
X138120000Y-104600000D03*
X139880000Y-104600000D03*
X139880000Y-102400000D03*
%TD*%
D36*
%TO.C,C10*%
X141500000Y-103250000D03*
X141500000Y-102290000D03*
%TD*%
D26*
%TO.C,J3*%
X138690000Y-91000000D03*
D27*
X141230000Y-91000000D03*
X143770000Y-91000000D03*
X146310000Y-91000000D03*
%TD*%
D38*
%TO.C,FB1*%
X139537500Y-106750000D03*
X137962500Y-106750000D03*
%TD*%
M02*
